<svg width="185" height="109" viewBox="0 0 185 109" fill="none" xmlns="http://www.w3.org/2000/svg">
<path d="M87.0794 91.2846C73.9392 78.247 57.5605 42.0095 97.1668 1.36078C124.61 23.2384 132.468 68.5354 107.154 90.2142C130.59 79.7592 127.001 48.0776 122.277 33.5437C127.071 29.5507 139.988 20.7751 153.304 17.6164C156.621 50.2902 154.793 78.9336 104.841 95.3626C121.285 94.0875 154.897 81.6844 157.798 42.2726C174.441 38.8972 177.869 42.3482 179.589 42.3547C181.309 42.3612 167.915 96.7462 103.116 96.5021C119.725 102.295 152.456 90.3849 161.674 78.9595C170.167 83.2428 185.064 89.5214 190.388 89.5085C190.744 89.4564 191.099 89.4153 191.454 89.3858C191.162 89.4679 190.804 89.5075 190.388 89.5085C177.508 91.3918 163.755 107.618 139.202 107.525C130.603 106.92 119.121 110.314 97.9554 96.4826C92.2102 99.326 83.7166 106.118 64.6527 107.817C39.9861 110.016 13.1035 91.5789 1.07206 88.6686C11.2108 86.6057 31.7218 81.335 32.6566 76.7544C36.6448 83.6455 61.2358 101.501 91.6454 97.0319C77.885 96.407 38.8781 99.6981 15.016 40.5887C20.7482 41.1833 32.7969 39.5096 37.9514 41.2481C37.707 55.3813 46.1565 85.6296 81.9099 93.5572C69.9022 84.3438 37.7895 84.2228 41.4827 17.1951C49.3104 19.7077 66.4502 26.4573 72.388 33.3557C67.1796 45.9422 67.0543 79.1761 87.0794 91.2846Z" fill="#C01F10" fill-opacity="0.05" stroke="#C01F10" stroke-opacity="0.1"/>
</svg>
