<svg width="51" height="56" viewBox="0 0 51 56" fill="none" xmlns="http://www.w3.org/2000/svg">
<path fill-rule="evenodd" clip-rule="evenodd" d="M25.6345 0C26.6402 0.0386707 27.6292 0.142468 28.5974 0.307858L25.9555 11.1842L25.6345 0ZM30.3327 0.674502C31.3038 0.920248 32.2499 1.22873 33.1667 1.59511L28.3207 11.6856L30.3327 0.674502ZM34.7863 2.31806C35.6808 2.75981 36.5421 3.25821 37.3652 3.80953L30.5296 12.6689L34.7863 2.31806ZM38.7996 4.85307C39.5802 5.46904 40.3185 6.13606 41.0115 6.84747L32.4857 14.0899L38.7996 4.85307ZM42.1994 8.16492C42.8343 8.92706 43.4198 9.73166 43.9519 10.5734L34.1037 15.8866L42.1994 8.16492ZM44.84 12.1088C45.3017 12.9836 45.7085 13.8919 46.0546 14.8296L35.3127 17.9804H35.3127L44.84 12.1088ZM46.6025 16.5164C46.8698 17.4642 47.0756 18.4377 47.2183 19.4316L36.06 20.2798L46.6025 16.5164ZM47.4016 21.1959C47.4339 21.6882 47.4515 22.1846 47.4515 22.6851C47.4515 23.1856 47.4335 23.6819 47.4016 24.1743L36.3128 22.6844L47.4016 21.1959ZM47.2183 25.9386C47.0757 26.9325 46.8696 27.9058 46.6025 28.8538L36.0602 25.0889L47.2183 25.9386ZM46.0546 30.5405C45.7087 31.4784 45.3015 32.3864 44.84 33.2614L35.3132 27.3884H35.3132L46.0546 30.5405ZM43.9519 34.7968C43.4199 35.6386 42.8342 36.443 42.1993 37.2052L34.1045 29.4824L43.9519 34.7968ZM41.0115 38.5227C40.3186 39.2342 39.5801 39.901 38.7996 40.5171L32.4868 31.2792L41.0115 38.5227ZM37.3652 41.5606C36.5422 42.112 35.6807 42.6102 34.7863 43.0521L30.5308 32.7004L37.3652 41.5606ZM14.7089 43.0521C13.8145 42.6103 12.953 42.1119 12.1299 41.5606L18.9667 32.6993L14.7089 43.0521ZM10.6956 40.5171C9.91495 39.9011 9.17662 39.2341 8.48372 38.5227L17.0109 31.2786L10.6956 40.5171ZM7.29579 37.2052C6.66089 36.4431 6.07543 35.6385 5.54324 34.7968L15.3933 29.4822L7.29579 37.2052ZM4.65516 33.2614C4.19351 32.3866 3.78674 31.4782 3.44057 30.5405L14.1846 27.3888L4.65516 33.2614ZM2.89268 28.8537C2.62532 27.9059 2.41959 26.9324 2.27681 25.9386L13.4374 25.0899L2.89268 28.8537ZM2.09359 24.1743C2.06127 23.682 2.0437 23.1856 2.0437 22.6851C2.0437 22.1846 2.06168 21.6883 2.09359 21.1958L13.1845 22.6858L2.09359 24.1743ZM2.27681 19.4315C2.41949 18.4377 2.62558 17.4643 2.89268 16.5163L13.4371 20.2817L2.27681 19.4315ZM3.44057 14.8296C3.78653 13.8918 4.19361 12.9836 4.65516 12.1087L14.184 17.9827L3.44057 14.8296ZM5.54324 10.5734C6.07533 9.73155 6.661 8.92711 7.29584 8.16492L15.3925 15.8891L5.54324 10.5734ZM8.48372 6.84747C9.17657 6.13601 9.91511 5.4691 10.6956 4.85307L17.0099 14.0926L8.48372 6.84747ZM12.1299 3.80953C12.953 3.25816 13.8145 2.75986 14.7089 2.31806L18.9655 12.6716L12.1299 3.80953ZM16.3284 1.59511C17.2451 1.22863 18.1914 0.920352 19.1625 0.674502L21.1737 11.6883L16.3284 1.59511ZM20.8978 0.307858C21.8658 0.142208 22.855 0.0388786 23.8607 0L23.5382 11.1855L20.8978 0.307858Z" fill="#C01F10"/>
<path d="M3.43631 42.455C3.33511 42.5598 3.24551 42.5695 3.16754 42.4843L2.37542 41.6188C2.14448 41.3665 1.94001 41.3315 1.76282 41.5149C1.66167 41.6196 1.62274 41.7341 1.64613 41.8584C1.74561 41.8864 1.8832 41.9536 2.05877 42.0601C2.23425 42.1666 2.36918 42.2716 2.46357 42.3747C2.63587 42.563 2.74102 42.7293 2.77865 42.8738C2.81649 43.0182 2.81665 43.2449 2.77948 43.5542C2.76602 43.6292 2.75058 43.7021 2.73301 43.7726C2.72002 43.8123 2.69731 43.8839 2.66472 43.9874C2.63223 44.091 2.58015 44.1798 2.50842 44.254C2.33976 44.4287 2.13778 44.5309 1.90227 44.5607C1.66671 44.5906 1.47918 44.5292 1.33962 44.3767L1.50678 43.4962C1.68038 43.596 1.8452 43.6415 2.00134 43.6327C2.15763 43.6239 2.28825 43.5649 2.39371 43.4558C2.41481 43.434 2.42677 43.3888 2.42978 43.3202C2.43269 43.2516 2.40764 43.1838 2.35431 43.1167C2.12863 42.87 1.85783 42.7223 1.54218 42.6735C1.22663 42.6248 0.982387 42.6898 0.809513 42.8688C0.598643 43.0871 0.518027 43.3736 0.567561 43.7283C0.617251 44.0831 0.83129 44.593 1.20989 45.2579L0.846468 45.3722C0.39006 44.6045 0.132359 43.9279 0.073106 43.3429C0.00927859 42.7976 0.114428 42.383 0.388449 42.0993C0.599319 41.881 0.896106 41.7746 1.27886 41.7801C1.28115 41.6031 1.31909 41.3934 1.3929 41.151C1.46676 40.9088 1.54795 40.7417 1.63646 40.65C1.92317 40.3531 2.24714 40.402 2.60832 40.7967L3.26099 41.5098L3.62151 41.1364L2.11933 39.4951L2.34267 38.6088L5.42728 41.9788L5.20383 42.8652L4.15099 41.7149L3.43631 42.455ZM4.38224 41.0442C4.56369 40.7148 4.69545 40.4182 4.77716 40.1544C4.87768 39.8004 4.8612 39.5621 4.72747 39.4395L4.6205 39.3414L4.47715 39.2595L4.59451 38.6978C4.62944 38.5397 4.66541 38.4282 4.70267 38.3631C4.76026 38.2921 4.85601 38.3177 4.98964 38.4403C5.08325 38.5262 5.15903 38.6246 5.21667 38.7353C5.27452 38.8462 5.31652 39.0004 5.34282 39.198C5.36912 39.3956 5.30113 39.7095 5.13912 40.1393C5.02914 40.4186 4.86739 40.762 4.65371 41.1693C4.61806 41.1366 4.56613 41.1096 4.49794 41.0883L4.38224 41.0442ZM10.8618 47.1611L10.0453 46.6021L7.89056 50.1623L7.48644 49.1823L8.04436 48.3473C7.92232 48.3753 7.76733 48.3771 7.57922 48.3527C7.41066 48.319 7.27921 48.27 7.18529 48.2057C6.97245 48.06 6.79791 47.7878 6.66131 47.3892C6.50601 46.9404 6.50954 46.5819 6.67197 46.3134L7.53676 44.8847L7.00971 44.5238L7.03991 43.6067L10.892 46.244L10.8618 47.1611ZM8.21958 45.3521L7.18269 47.0651C7.08082 47.2335 7.10286 47.3676 7.24761 47.4667C7.34782 47.5353 7.52252 47.5733 7.77076 47.5792C8.0178 47.5847 8.28616 47.5488 8.57468 47.471L9.37741 46.1448L8.21958 45.3521ZM7.95018 48.7629L5.46481 49.0709L5.20503 48.2342L8.24426 48.2944L7.95018 48.7629ZM14.1585 48.8412L13.8039 48.6509L13.7437 47.7354L14.0983 47.9258L14.1585 48.8412ZM13.8168 50.6452L13.4828 51.3494L11.9856 50.5459C11.8742 50.7806 11.7835 50.9299 11.7137 50.9941C11.6438 51.0581 11.5614 51.0648 11.4668 51.0141C11.3407 50.9464 11.2068 50.6976 11.0653 50.266C10.9241 49.8344 10.8849 49.5523 10.9478 49.4195C10.9744 49.3637 11.0186 49.3191 11.0799 49.2871C11.1419 49.2537 11.2135 49.2554 11.295 49.2922L11.6891 49.5036L11.8563 49.2551C11.489 48.9318 11.2453 48.5978 11.1262 48.2516C11.0226 47.942 11.0301 47.6621 11.15 47.4093C11.2561 47.1857 11.4224 47.0263 11.6478 46.9333C11.8737 46.8389 12.1178 46.863 12.3804 47.0039C12.7587 47.2069 12.9695 47.5268 13.0127 47.9636C13.0511 48.2996 12.9907 48.6352 12.8317 48.9706L12.3746 49.8715L13.8168 50.6452ZM12.4078 48.2384C12.4874 48.0707 12.5155 47.9281 12.4922 47.8104C12.4688 47.6928 12.4204 47.6142 12.3468 47.5748C12.2628 47.5297 12.1503 47.5411 12.0092 47.6092C11.8682 47.6772 11.77 47.7699 11.7143 47.8873C11.5473 48.2393 11.6619 48.5742 12.0583 48.892L12.4078 48.2384ZM13.4733 52.924L12.8926 52.0405L14.2202 48.682L13.6218 48.4279L13.487 47.5214L15.8067 48.5068L15.9416 49.4132L14.9498 48.9919L13.4733 52.924ZM16.3241 53.83L15.6598 53.0159L16.6502 49.5283L16.03 49.342L15.8068 48.4555L18.2108 49.1776L18.4339 50.0641L17.4061 49.7553L16.3241 53.83ZM17.2088 49.1319C17.2237 48.7504 17.2091 48.4229 17.1647 48.1491C17.0973 47.7863 16.9774 47.5841 16.8053 47.5426L16.6676 47.5094L16.5048 47.5088L16.3605 46.9541C16.3216 46.7971 16.3042 46.6807 16.3084 46.6047C16.3278 46.5131 16.4236 46.4881 16.5957 46.5295C16.7164 46.5586 16.8266 46.6076 16.9265 46.6767C17.0264 46.7456 17.1316 46.8609 17.242 47.0221C17.3525 47.1835 17.431 47.4946 17.4776 47.9551C17.5038 48.2565 17.5127 48.6404 17.5038 49.1068C17.4579 49.0958 17.4 49.0978 17.3304 49.1131L17.2088 49.1319ZM20.0515 48.7999L19.3159 52.79L18.7126 52.1461L19.3369 48.0689L20.0515 48.7999ZM19.5207 53.904L18.7559 54.4783L18.2087 53.6541L18.9734 53.0797L19.5207 53.904ZM25.1193 53.5381C24.9768 53.6336 24.7901 53.7245 24.5624 53.8111C24.3347 53.8974 24.1452 53.9381 23.9937 53.9331C23.607 53.9204 23.2625 53.7213 22.9573 53.3356C22.6535 52.9499 22.4473 52.4484 22.3431 51.8313C22.4023 51.8208 22.4659 51.8072 22.5342 51.7907C22.6023 51.7741 22.7019 51.743 22.8327 51.6971C23.0288 51.6348 23.1865 51.5742 23.306 51.5155C23.4255 51.4569 23.4926 51.3744 23.5074 51.2685C23.51 51.181 23.4978 51.0929 23.471 51.0044C23.4561 50.9099 23.412 50.8082 23.3385 50.6994L21.9534 50.6539L21.5352 49.8512L26.4759 50.0136L26.8941 50.8163L26.0118 50.7872L25.8888 55.0192L25.0678 54.4006L25.1193 53.5381ZM25.2001 50.7606L23.8414 50.716L24.0931 51.4757C24.1577 51.6844 24.1943 51.8421 24.203 51.9488C24.2007 52.0302 24.1485 52.1036 24.0464 52.1692C23.9445 52.2347 23.76 52.3006 23.4932 52.3669C23.2386 52.415 23.1086 52.5328 23.1032 52.7204C23.0994 52.8518 23.1419 52.9581 23.2308 53.0393C23.3197 53.1205 23.4671 53.1645 23.6729 53.1713C23.8317 53.1765 24.0722 53.1093 24.3941 52.9695C24.7162 52.8299 24.9678 52.6784 25.1491 52.5154L25.2001 50.7606ZM30.0809 51.3368C30.1012 51.4856 30.0559 51.5684 29.9452 51.5854L28.8213 51.7582C28.4936 51.8086 28.3469 51.964 28.3823 52.2242C28.4025 52.3729 28.4666 52.4736 28.575 52.5266C28.6547 52.4574 28.7867 52.3786 28.9709 52.2902C29.1551 52.2017 29.3142 52.1473 29.4481 52.1267C29.6927 52.0891 29.8809 52.0964 30.0129 52.1489C30.145 52.2013 30.3176 52.3344 30.5311 52.5482C30.5803 52.6039 30.6265 52.66 30.6698 52.7166C30.6924 52.751 30.7335 52.8126 30.7931 52.9016C30.8528 52.9904 30.8897 53.0874 30.904 53.1928C30.9377 53.4406 30.8967 53.6744 30.781 53.8947C30.6653 54.1148 30.5084 54.2401 30.3104 54.2706L29.7388 53.6091C29.9168 53.5185 30.0483 53.4034 30.1333 53.2638C30.2185 53.1242 30.2505 52.9771 30.2294 52.8223C30.2252 52.7913 30.1979 52.7545 30.1475 52.7115C30.0971 52.6686 30.0306 52.6505 29.9483 52.6568C29.628 52.706 29.3564 52.8522 29.1338 53.0951C28.9113 53.3381 28.8171 53.5865 28.8517 53.8404C28.8938 54.1502 29.0644 54.388 29.3634 54.5537C29.6624 54.7196 30.176 54.8351 30.9043 54.9002L30.7776 55.2801C29.9254 55.2214 29.2594 55.0456 28.7795 54.7527C28.3273 54.4871 28.0736 54.153 28.0189 53.7504C27.9768 53.4406 28.0703 53.1228 28.2996 52.7965C28.1662 52.6906 28.029 52.5346 27.888 52.3287C27.7471 52.1227 27.6677 51.9547 27.6501 51.8247C27.5928 51.4034 27.8204 51.1535 28.3329 51.0746L29.2589 50.9322L29.1869 50.4025L27.0554 50.7304L26.5125 50.0172L30.8891 49.344L31.432 50.0572L29.9381 50.287L30.0809 51.3368ZM35.0995 48.7182L32.4436 49.7034L31.7799 49.1145L36.0221 47.5408L36.683 48.1307L35.8495 48.4398L37.1606 52.4376L36.1857 52.173L35.5733 50.1631L34.7316 50.4753C34.4814 50.5681 34.3214 50.7071 34.2512 50.8921C34.1922 51.0731 34.2013 51.2818 34.2789 51.5182C34.3429 51.7132 34.4791 51.9146 34.6874 52.1224C34.8958 52.3301 35.1528 52.5296 35.4587 52.7211L35.2317 53.0837C34.6301 52.6174 34.1904 52.2504 33.9123 51.9822C33.6343 51.7142 33.4527 51.4503 33.3674 51.1902C33.2859 50.9419 33.312 50.6888 33.444 50.4309C33.5761 50.1732 33.8344 49.9729 34.2207 49.8296L35.3291 49.4184L35.0995 48.7182ZM35.1344 48.0483C34.941 47.7267 34.7522 47.4673 34.5683 47.27C34.3174 47.0139 34.1103 46.9215 33.9468 46.9925L33.816 47.0493L33.6824 47.148L33.2651 46.7817C33.1486 46.677 33.0715 46.5921 33.0338 46.5273C33.0005 46.4404 33.0654 46.3614 33.2288 46.2904C33.3433 46.2407 33.46 46.2136 33.579 46.2092C33.6981 46.2047 33.8465 46.235 34.0239 46.2998C34.2014 46.3646 34.4335 46.5715 34.72 46.9202C34.9041 47.1512 35.1183 47.4603 35.3625 47.8477C35.319 47.8666 35.2727 47.9036 35.2239 47.9586L35.1344 48.0483ZM35.8499 48.5084L35.1104 48.0356L38.2912 46.2195L39.0308 46.6922L37.7165 47.4426L38.4513 48.8985C38.5236 49.0419 38.5493 49.2083 38.528 49.398C38.5069 49.5877 38.4492 49.7876 38.355 49.9977C38.6118 50.1493 39.1547 50.3649 39.9838 50.6446L39.8499 51.094L37.6793 50.1278C37.2155 49.9238 36.9559 49.7666 36.9002 49.6562C36.8676 49.6181 36.8613 49.5524 36.881 49.4594C36.9008 49.3664 36.9365 49.298 36.988 49.2545C37.0605 49.2131 37.1429 49.1909 37.2349 49.1881L37.6135 49.1637C37.6704 49.1312 37.6739 49.0654 37.6237 48.966L37.0475 47.8246L35.8499 48.5084ZM42.6276 49.3902L41.6142 49.3893L39.789 46.3064L39.25 46.6819L38.4746 46.2796L40.5641 44.8237L41.3395 45.2261L40.4462 45.8486L42.6276 49.3902ZM44.8488 42.2167L44.0968 42.8697L46.6144 46.1495L45.6131 46.2554L45.0389 45.433C45.0263 45.5651 44.98 45.7225 44.8999 45.9052C44.8177 46.0653 44.7334 46.1831 44.6468 46.2582C44.4507 46.4285 44.1534 46.5209 43.7548 46.536C43.3054 46.5544 42.986 46.44 42.7962 46.1928L41.7857 44.8765L41.3003 45.2981L40.4896 44.9841L44.0381 41.9027L44.8488 42.2167ZM42.4148 44.3303L43.6261 45.9084C43.7452 46.0635 43.872 46.0827 44.0052 45.9669C44.0977 45.8868 44.1855 45.7217 44.2676 45.4725C44.3488 45.2243 44.3996 44.9417 44.4193 44.6258L43.4814 43.4041L42.4148 44.3303ZM43.021 41.0516L43.0248 42.0474L42.0761 42.0514L42.0724 41.0557L43.021 41.0516ZM48.7046 41.8589C48.6969 42.0448 48.683 42.2197 48.6607 42.3858C48.6396 42.5507 48.6099 42.7113 48.5742 42.8652C48.5013 43.1299 48.3836 43.3495 48.2229 43.5218C48.1039 43.6495 47.9347 43.7619 47.7176 43.8569C47.5005 43.9518 47.2615 44.0059 46.9994 44.0203C46.8214 44.0244 46.7029 44.0271 46.6447 44.0274C46.5542 44.0267 46.4315 44.0206 46.2775 44.0079C46.0579 43.9857 45.9308 43.9661 45.8976 43.9488C45.8724 43.9223 45.9168 43.7882 46.0292 43.5476C46.1417 43.3071 46.2188 43.0489 46.2613 42.7722C45.8831 42.8844 45.565 42.9367 45.3071 42.9289C45.0489 42.9211 44.8427 42.8358 44.6881 42.6727C44.4709 42.4435 44.3679 42.1762 44.3793 41.8708C44.3907 41.5653 44.5019 41.2994 44.7133 41.0727C44.9495 40.8195 45.2996 40.7017 45.7637 40.7198C46.2277 40.7377 46.583 40.8767 46.8293 41.1368C47.0215 41.3395 47.1267 41.6179 47.1447 41.9718C47.1669 42.3567 47.0895 42.8129 46.9126 43.3403L47.0004 43.4594C47.1383 43.6049 47.2963 43.5821 47.4745 43.391C47.6402 43.2133 47.7702 42.9073 47.8643 42.4733C47.9584 42.0391 47.9815 41.5633 47.9338 41.0458L48.7046 41.8589ZM46.3284 42.367C46.3653 42.2031 46.3625 42.0238 46.3201 41.8293C46.2778 41.6348 46.1879 41.4647 46.0499 41.3193C45.9372 41.2002 45.8287 41.1476 45.7248 41.1614C45.6249 41.1618 45.5211 41.2198 45.4133 41.3353C45.2973 41.4597 45.2437 41.6125 45.2528 41.7941C45.2619 41.9754 45.3248 42.1278 45.4418 42.2512C45.6298 42.4496 45.9253 42.4882 46.3284 42.367ZM50.055 42.2802L49.0857 42.5945L46.4927 40.2137L46.0806 40.7406L45.2285 40.5968L46.8263 38.5549L47.6785 38.6985L46.9953 39.5715L50.055 42.2802Z" fill="#C01F10"/>
<path fill-rule="evenodd" clip-rule="evenodd" d="M21.197 20.1658C21.1425 20.304 21.1085 20.4355 21.197 20.6617C21.5529 21.7739 21.9296 22.8788 22.2858 23.9907V28.028L16.2337 43.6525C18.6725 44.9217 21.9041 45.3815 24.5424 45.3815L24.5716 22.7865C24.2743 22.3376 24.1001 22.0225 23.8949 21.5954C23.8241 21.4623 23.7918 21.3196 23.9237 21.1237C24.1328 20.7287 24.3436 20.4149 24.5314 20.0242V16.6244C22.9291 17.4999 21.7942 18.7783 21.197 20.1658Z" fill="#C01F10"/>
<path fill-rule="evenodd" clip-rule="evenodd" d="M28.2978 20.1658C28.3523 20.304 28.3863 20.4355 28.2978 20.6617C27.942 21.7739 27.5653 22.8788 27.2091 23.9907V28.028L33.2612 43.6525C30.8224 44.9217 27.5907 45.3815 24.9524 45.3815L24.9233 22.7865C25.2206 22.3376 25.3947 22.0225 25.5999 21.5954C25.6707 21.4623 25.703 21.3196 25.5711 21.1237C25.3621 20.7287 25.1513 20.4149 24.9634 20.0242V16.6244C26.5658 17.4999 27.7007 18.7783 28.2978 20.1658Z" fill="#C01F10"/>
</svg>
