<svg width="20" height="21" viewBox="0 0 20 21" fill="none" xmlns="http://www.w3.org/2000/svg">
<path d="M19.31 6.87472C18.8112 5.59522 18.0557 4.43148 17.0889 3.45552C17.0835 3.44648 17.078 3.43745 17.0717 3.42932C17.0636 3.42118 17.0536 3.41847 17.0455 3.41124H17.0446C16.1437 2.51576 15.0811 1.79829 13.9127 1.29861L13.9073 1.29499L13.9037 1.29409C11.5379 0.285654 8.87329 0.235965 6.47145 1.15493C6.45248 1.15674 6.4344 1.15945 6.41633 1.16397C6.40187 1.1721 6.38832 1.18114 6.37567 1.19017C5.09524 1.68895 3.93057 2.44529 2.95462 3.41216C2.94648 3.41848 2.93654 3.42119 2.92931 3.42933C2.92209 3.43655 2.91937 3.4474 2.91215 3.45463C2.01576 4.35552 1.29829 5.41908 0.798606 6.58745L0.794991 6.59287L0.794088 6.59649V6.59739C-0.214347 8.96222 -0.264035 11.6268 0.654933 14.0287C0.654933 14.0684 0.66939 14.1064 0.694693 14.1371C1.19347 15.4121 1.94801 16.5723 2.91214 17.5454C2.91847 17.5536 2.92208 17.5635 2.92931 17.5707C2.93654 17.578 2.94738 17.5807 2.95461 17.5879C3.85551 18.4843 4.91906 19.2018 6.08744 19.7015L6.09286 19.7051L6.09647 19.706C8.46037 20.7135 11.1231 20.7641 13.5231 19.8469C13.5439 19.8451 13.5638 19.8406 13.5837 19.8352C13.5972 19.828 13.6108 19.8198 13.6234 19.8099C14.9039 19.312 16.0685 18.5557 17.0445 17.5888C17.0526 17.5816 17.0635 17.5789 17.0707 17.5707H17.0716C17.0779 17.5626 17.0833 17.5536 17.0888 17.5445C17.9842 16.6445 18.6999 15.5828 19.1996 14.4154C19.2014 14.4118 19.2032 14.41 19.205 14.4064L19.2059 14.4019V14.4028C20.2144 12.0379 20.264 9.37423 19.3451 6.97332C19.3442 6.95434 19.3406 6.93537 19.336 6.91639C19.3279 6.90193 19.319 6.88828 19.31 6.87472ZM18.6648 13.7855L17.556 13.3147C17.8497 12.5277 18.0178 11.7 18.0539 10.8615H19.2584C19.2214 11.8618 19.0208 12.8493 18.6648 13.7855ZM16.8006 16.789L15.9485 15.9378C16.4835 15.3532 16.9298 14.6936 17.2723 13.9797L18.3811 14.4505H18.382C17.9762 15.3053 17.4431 16.0943 16.8006 16.789ZM13.6588 19.0228L13.2259 17.8951C14.0374 17.5372 14.7847 17.0484 15.438 16.4484L16.2892 17.2996C15.5166 18.0189 14.6265 18.6017 13.6588 19.0219L13.6588 19.0228ZM3.71091 17.3005L4.56031 16.4511C5.14584 16.9842 5.80639 17.4297 6.52025 17.7731L6.04946 18.8809C5.19465 18.4761 4.4057 17.9429 3.71091 17.3005ZM1.4781 14.1586L2.60581 13.7258C2.96001 14.539 3.44707 15.2881 4.04707 15.9424L3.19948 16.789C2.4811 16.0165 1.89828 15.1264 1.4781 14.1586ZM7.18626 18.0551C7.97239 18.3496 8.80012 18.5195 9.63876 18.5584V19.7584C8.63847 19.7213 7.6508 19.5207 6.71459 19.1647L7.18626 18.0551ZM10.3616 18.5538C11.1062 18.5222 11.8436 18.3876 12.5511 18.1526L12.9821 19.2758V19.2767C12.1363 19.5632 11.2535 19.7258 10.3617 19.7583L10.3616 18.5538ZM17.7108 10.1385C17.5111 10.1385 17.3494 10.3002 17.3494 10.4999C17.3494 12.8069 16.2659 14.9809 14.4236 16.3689C12.5811 17.7577 10.1929 18.2005 7.97542 17.5653C5.75707 16.9291 3.96704 15.2891 3.13936 13.1349V13.134C3.13123 13.1187 3.12129 13.1033 3.11135 13.0898C3.02641 12.9316 2.83845 12.8611 2.6713 12.9235C2.66768 12.9253 2.66497 12.928 2.66136 12.9298L1.22373 13.4819C0.937277 12.6361 0.774633 11.7533 0.742109 10.8615H2.28999C2.48969 10.8615 2.65144 10.6997 2.65144 10.5C2.65144 10.4467 2.65144 10.397 2.65595 10.3238C2.67312 9.43829 2.85384 8.56359 3.18818 7.7441C3.55687 6.83236 4.10444 6.00285 4.79841 5.3071L4.80293 5.30348L4.80564 5.29897H4.80654C5.52763 4.57518 6.39238 4.01042 7.34579 3.64264C7.35301 3.64083 7.36024 3.64173 7.36747 3.63902C7.37199 3.63722 7.3747 3.6336 7.37922 3.6318V3.63089C8.77982 3.09866 10.3106 3.0065 11.7644 3.36704C13.2193 3.72849 14.5294 4.52547 15.5181 5.65137C16.0693 6.27305 16.5085 6.98509 16.8175 7.75589C16.832 7.78842 16.8473 7.82185 16.8582 7.85438L16.8609 7.8589C16.8618 7.86161 16.8609 7.86432 16.8627 7.86703L16.8618 7.86613C16.9214 7.99715 17.047 8.0857 17.1907 8.09745L17.1998 8.09836C17.2124 8.09655 17.226 8.09384 17.2386 8.09113C17.2648 8.09113 17.291 8.08751 17.3163 8.08119C17.3208 8.07938 17.3236 8.07576 17.3281 8.07396H17.329L18.7775 7.51825H18.7766C19.0639 8.36402 19.2265 9.24686 19.2591 10.1387L17.7108 10.1385ZM1.33561 7.21433L2.44344 7.6842L2.44254 7.6851C2.14617 8.47033 1.97809 9.29895 1.94376 10.1383H0.741959C0.779008 9.138 0.979577 8.15054 1.33561 7.21433ZM3.19976 4.21082L4.04101 5.05207C3.50698 5.63943 3.0624 6.30176 2.72175 7.01833L1.61845 6.54937C2.02417 5.69455 2.5573 4.9056 3.19976 4.21082ZM6.3416 1.97801L6.77263 3.1003C5.95668 3.4527 5.20578 3.93795 4.54884 4.53793L3.71119 3.69938C4.48377 2.9801 5.37386 2.39818 6.3416 1.97801ZM16.2895 3.70028L15.4455 4.54425C14.859 4.00931 14.1976 3.56473 13.4811 3.22408L13.9509 2.11807C14.8066 2.52379 15.5947 3.05693 16.2895 3.70028ZM18.5223 6.84213L17.3919 7.27586L17.3928 7.27496C17.062 6.5087 16.613 5.79846 16.0599 5.17317C16.0256 5.13341 15.9859 5.09998 15.9506 5.06112L16.8009 4.21082C17.5202 4.9834 18.1021 5.87346 18.5223 6.84121L18.5223 6.84213ZM12.815 2.94478C12.028 2.65202 11.2003 2.48394 10.3619 2.4469V1.24149C11.3621 1.27854 12.3498 1.47913 13.286 1.83516L12.815 2.94478ZM9.63897 2.44146C8.89348 2.47309 8.15613 2.60773 7.4477 2.84177L7.01848 1.72401V1.72311C7.86425 1.43666 8.7471 1.27402 9.63892 1.24149L9.63897 2.44146Z" fill="#CF0000"/>
<path d="M10.4816 4.23538C10.4816 4.87784 9.51838 4.87784 9.51838 4.23538C9.51838 3.59293 10.4816 3.59293 10.4816 4.23538Z" fill="#CF0000"/>
<path d="M14.9119 6.06973C14.9119 6.71219 13.9478 6.71219 13.9478 6.06973C13.9478 5.42728 14.9119 5.42728 14.9119 6.06973Z" fill="#CF0000"/>
<path d="M16.7474 10.5C16.7474 11.1425 15.7832 11.1425 15.7832 10.5C15.7832 9.85757 16.7474 9.85757 16.7474 10.5Z" fill="#CF0000"/>
<path d="M14.9119 14.9303C14.9119 15.5728 13.9478 15.5728 13.9478 14.9303C13.9478 14.2879 14.9119 14.2879 14.9119 14.9303Z" fill="#CF0000"/>
<path d="M10.4816 16.7648C10.4816 17.4073 9.51838 17.4073 9.51838 16.7648C9.51838 16.1223 10.4816 16.1223 10.4816 16.7648Z" fill="#CF0000"/>
<path d="M6.05227 14.9303C6.05227 15.5728 5.08811 15.5728 5.08811 14.9303C5.08811 14.2879 6.05227 14.2879 6.05227 14.9303Z" fill="#CF0000"/>
<path d="M4.217 10.5C4.217 11.1425 3.25284 11.1425 3.25284 10.5C3.25284 9.85757 4.217 9.85757 4.217 10.5Z" fill="#CF0000"/>
<path d="M6.05227 6.06973C6.05227 6.71219 5.08811 6.71219 5.08811 6.06973C5.08811 5.42728 6.05227 5.42728 6.05227 6.06973Z" fill="#CF0000"/>
<path d="M11.0547 7.09267C10.9427 6.92911 10.7204 6.88574 10.555 6.99598C10.3906 7.10532 10.3445 7.32761 10.4529 7.49386L12.4129 10.4342C12.44 10.474 12.44 10.5264 12.4129 10.5671L10.1005 14.036C10.0382 14.1291 9.96227 14.1291 9.89992 14.036L7.58758 10.568V10.5671C7.56047 10.5264 7.56047 10.474 7.58758 10.4333L10.301 6.36342C10.4085 6.19716 10.3634 5.97487 10.198 5.86554C10.0335 5.7553 9.81125 5.79868 9.69922 5.96223L6.98579 10.0321V10.0331C6.79693 10.3159 6.79693 10.6846 6.98579 10.9683L9.29813 14.4363C9.45536 14.6712 9.7183 14.8122 10.0002 14.8122C10.2822 14.8122 10.5451 14.6712 10.7024 14.4363L13.0138 10.9683C13.2045 10.6855 13.2045 10.3159 13.0138 10.0321L11.0547 7.09267Z" fill="#CF0000"/>
</svg>
