<svg width="48" height="46" viewBox="0 0 48 46" fill="none" xmlns="http://www.w3.org/2000/svg">
<path d="M6.32038 -0.632956C14.8173 -0.694044 31.9236 5.69606 32.373 31.7452C16.3716 33.6041 -0.933715 21.508 0.180997 6.25077C-3.98564 17.2653 7.50175 26.3466 13.7663 29.5104C13.5185 32.3633 12.2044 39.4088 8.93027 44.7671C-2.79285 35.2765 -11.539 25.4141 -0.749592 3.83183C-5.64866 9.59929 -12.4694 24.5581 -0.559747 38.2538C-4.83852 44.7656 -7.07129 44.7654 -7.62943 45.3235C-8.18756 45.8816 -21.5866 23.9245 -0.56363 2.90152C-7.81976 6.43595 -14.5165 20.9483 -13.7715 27.6467C-17.9127 29.0267 -24.7743 31.8467 -26.4906 33.5845C-26.5888 33.7173 -26.6902 33.8463 -26.7953 33.9714C-26.7278 33.8499 -26.625 33.7205 -26.4906 33.5845C-22.9419 28.7809 -23.7857 19.0524 -15.82 11.0867C-12.8433 8.48211 -10.2389 3.64472 1.11077 1.22712C2.04078 -1.56374 2.57207 -6.52704 8.17963 -13.2851C15.4352 -22.0294 30.134 -24.8187 34.9714 -27.7952C32.3669 -23.8262 27.4557 -15.4414 28.6467 -13.655C25.1114 -14.5857 11.3428 -12.3545 2.97117 -1.00545C7.62232 -5.28443 19.1568 -19.0519 46.1374 -7.69903C44.0909 -6.02468 40.7422 -1.55949 38.5096 -0.443348C33.9815 -5.09546 21.3904 -12.1301 7.25043 -3.05169C14.1347 -3.98126 24.5532 -14.3997 45.2089 8.48849C41.8599 10.2247 34.12 13.6227 29.9521 13.3245C27.5327 7.55623 16.7397 -3.23672 6.32038 -0.632956Z" fill="#C01F10" fill-opacity="0.15" stroke="#C01F10" stroke-opacity="0.25"/>
</svg>
